# xmcd CD database file
#
# Track frame offsets:
#	150
#	13072
#	32060
#	47412
#	63967
#	78607
#	92577
#	110225
#	126987
#	138965
#	156835
#	173792
#	190937
#	207527
#	220887
#	237917
#	251880
#	267117
#	283930
#	299700
#	314120
#	314767
#	315680
#	316457
#	317115
#	317872
#	318620
#	319452
#	320427
#	321147
#	321905
#	322970
#	323750
#	324732
#	325500
#	326407
#	327162
#	327915
#	328680
#	329740
#	330565
#
# Disc length: 4415 seconds
#
# Revision: 0
# Processed by: cddbd v1.5.2PL0 Copyright (c) Steve Scherf et al.
# Submitted via: CDex 1.70beta2
#
DISCID=92113d29
DTITLE=Jones Country - Jones Country Recurrent CHC-1172
DYEAR=0000
DGENRE=Country
TTITLE0=Clay Walker/Only On Days That End In "Y" [album version]
TTITLE1=Brooks and Dunn/I Am That Man
TTITLE2=George Strait/Carried Away
TTITLE3=James Bonamy/I Don't Think I Will
TTITLE4=Mindy McCready/Guys Do It All The Time [remix]
TTITLE5=Tim McGraw/She Never Lets It Go To Her Heart
TTITLE6=Ty Herndon/Living In A Moment
TTITLE7=Billy Dean/That Girl's Been Spying On Me
TTITLE8=Bryan White/So Much For Pretending [single edit]
TTITLE9=Faith Hill/You Can't Lose Me [single edit]
TTITLE10=Kenny Chesney/Me And You
TTITLE11=Collin Raye/Love Remains
TTITLE12=Toby Keith/A Womann's Touch [single edit]
TTITLE13=Jo Dee Messina/You're Not In Kansas Anymore
TTITLE14=Trisha Yearwood/Believe Me Baby (I Lied)
TTITLE15=Alabama/Maker Said Take Her [edit]
TTITLE16=John Berry/Change My Mind
TTITLE17=Paul Brandt/I Do [album version]
TTITLE18=Travis Tritt/More Than You'll Ever Know [edit]
TTITLE19=Sammy Kershaw/Vidalia
TTITLE20=Production Track 21
TTITLE21=Production Track 22
TTITLE22=Production Track 23
TTITLE23=Production Track 24
TTITLE24=Production Track 25
TTITLE25=Production Track 26
TTITLE26=Production Track 27
TTITLE27=Production Track 28
TTITLE28=Production Track 29
TTITLE29=Production Track 30
TTITLE30=Production Track 31
TTITLE31=Production Track 32
TTITLE32=Production Track 33
TTITLE33=Production Track 34
TTITLE34=Production Track 35
TTITLE35=Production Track 36
TTITLE36=Production Track 37
TTITLE37=Production Track 38
TTITLE38=Production Track 39
TTITLE39=Production Track 40
TTITLE40=Production Track 41
EXTD=YEAR: 0000
EXTT0=
EXTT1=
EXTT2=
EXTT3=
EXTT4=
EXTT5=
EXTT6=
EXTT7=
EXTT8=
EXTT9=
EXTT10=
EXTT11=
EXTT12=
EXTT13=
EXTT14=
EXTT15=
EXTT16=
EXTT17=
EXTT18=
EXTT19=
EXTT20=
EXTT21=
EXTT22=
EXTT23=
EXTT24=
EXTT25=
EXTT26=
EXTT27=
EXTT28=
EXTT29=
EXTT30=
EXTT31=
EXTT32=
EXTT33=
EXTT34=
EXTT35=
EXTT36=
EXTT37=
EXTT38=
EXTT39=
EXTT40=
PLAYORDER=
